<svg width="138" height="138" viewBox="0 0 138 138" fill="none" xmlns="http://www.w3.org/2000/svg">
<path d="M125.401 44.2338C121.396 39.5677 118.759 33.8957 117.526 27.8711C116.481 22.7624 114.266 18.3294 110.798 14.8617C94.9572 -0.979509 58.9772 9.31686 30.4347 37.8594C1.89211 66.402 -8.40425 102.382 7.43691 118.223C14.9668 125.753 27.0472 127.375 40.7157 123.94C48.6542 121.945 57.0309 122.785 64.5126 126.104C70.7662 128.879 77.6654 130.464 84.9226 130.57C113.406 130.985 137.144 108.319 137.977 79.8451C138.375 66.2324 133.569 53.7485 125.401 44.2338Z" fill="url(#paint0_linear)"/>
<path opacity="0.1" d="M127.277 43.0848H100.769C100.025 43.0848 99.4215 43.6883 99.4215 44.4324V56.5894H69H24.5274C23.0387 56.5894 21.832 57.7961 21.832 59.2847V94.5084H10.7228C9.9786 94.5084 9.37512 95.1119 9.37512 95.856V115.914C9.37512 116.658 9.9786 117.262 10.7228 117.262H37.2306C37.9748 117.262 38.5783 116.658 38.5783 115.914V103.757H69H113.473C114.961 103.757 116.168 102.551 116.168 101.062V65.8386H127.277C128.021 65.8386 128.625 65.2351 128.625 64.4909V44.4327C128.625 43.6883 128.021 43.0848 127.277 43.0848Z" fill="#0000CC"/>
<path d="M69 96.4803H21.832V52.0076C21.832 50.519 23.0387 49.3123 24.5273 49.3123H69V96.4803Z" fill="white"/>
<path d="M43.4396 71.7796H47.3928C48.137 71.7796 48.7404 72.3831 48.7404 73.1273V83.6357C48.7404 84.3799 48.137 84.9834 47.3928 84.9834H43.4396C42.6954 84.9834 42.0919 84.3799 42.0919 83.6357V73.1273C42.0919 72.3831 42.6951 71.7796 43.4396 71.7796Z" fill="#6C6CFF"/>
<path d="M42.135 62.1566V66.1098C42.135 66.8539 41.5315 67.4574 40.7874 67.4574H30.2789C29.5347 67.4574 28.9312 66.8539 28.9312 66.1098V62.1566C28.9312 61.4124 29.5347 60.8089 30.2789 60.8089H40.7874C41.5318 60.8089 42.135 61.4124 42.135 62.1566Z" fill="#6C6CFF"/>
<path d="M61.9008 62.1566V66.1098C61.9008 66.8539 61.2974 67.4574 60.5532 67.4574H50.0447C49.3005 67.4574 48.6971 66.8539 48.6971 66.1098V62.1566C48.6971 61.4124 49.3005 60.8089 50.0447 60.8089H60.5532C61.2974 60.8089 61.9008 61.4124 61.9008 62.1566Z" fill="#6C6CFF"/>
<path d="M28.1277 57.6142C29.2357 57.6142 30.1338 56.716 30.1338 55.608C30.1338 54.5001 29.2357 53.6019 28.1277 53.6019C27.0198 53.6019 26.1216 54.5001 26.1216 55.608C26.1216 56.716 27.0198 57.6142 28.1277 57.6142Z" fill="#D9D9FF"/>
<path d="M62.7043 92.1907C63.8122 92.1907 64.7104 91.2925 64.7104 90.1845C64.7104 89.0766 63.8122 88.1784 62.7043 88.1784C61.5963 88.1784 60.6982 89.0766 60.6982 90.1845C60.6982 91.2925 61.5963 92.1907 62.7043 92.1907Z" fill="#D9D9FF"/>
<path d="M35.9824 77.5896H34.7695C34.0254 77.5896 33.4219 76.9861 33.4219 76.2419V72.9609C33.4219 72.2168 34.0254 71.6133 34.7695 71.6133H35.9824C36.7266 71.6133 37.3301 72.2168 37.3301 72.9609V76.2419C37.3301 76.9864 36.7266 77.5896 35.9824 77.5896Z" fill="#6C6CFF"/>
<path d="M56.0625 77.5896H54.8496C54.1054 77.5896 53.502 76.9861 53.502 76.2419V72.9609C53.502 72.2168 54.1054 71.6133 54.8496 71.6133H56.0625C56.8067 71.6133 57.4102 72.2168 57.4102 72.9609V76.2419C57.4102 76.9864 56.8067 77.5896 56.0625 77.5896Z" fill="#6C6CFF"/>
<path d="M116.168 49.3123V93.785C116.168 95.2736 114.961 96.4803 113.473 96.4803H69V49.3123H116.168Z" fill="white"/>
<path d="M116.168 49.3123V63.9128H100.77C100.026 63.9128 99.422 63.3091 99.422 62.5652V49.3123H116.168Z" fill="#FFF3EE"/>
<path d="M92.584 55.7352C83.1073 55.7352 75.4229 63.4196 75.4229 72.8963C75.4229 82.373 83.1073 90.0573 92.584 90.0573C102.061 90.0573 109.745 82.373 109.745 72.8963C109.745 63.4196 102.061 55.7352 92.584 55.7352ZM92.584 85.0926C85.8484 85.0926 80.3877 79.6319 80.3877 72.8963C80.3877 66.1607 85.8484 60.7 92.584 60.7C99.3196 60.7 104.78 66.1607 104.78 72.8963C104.78 79.6319 99.3196 85.0926 92.584 85.0926Z" fill="#FFAB66"/>
<path d="M107.206 63.9128H100.834C100.4 63.5139 99.9368 63.1446 99.4463 62.8131C99.4301 62.7322 99.422 62.6487 99.422 62.5651V57.1556C102.656 58.5599 105.373 60.9345 107.206 63.9128Z" fill="#FF9D33"/>
<path d="M92.5839 77.9762C95.3895 77.9762 97.6638 75.7018 97.6638 72.8963C97.6638 70.0908 95.3895 67.8165 92.5839 67.8165C89.7784 67.8165 87.5041 70.0908 87.5041 72.8963C87.5041 75.7018 89.7784 77.9762 92.5839 77.9762Z" fill="#FF6C6C"/>
<path d="M75.2957 57.6142C76.4036 57.6142 77.3018 56.716 77.3018 55.608C77.3018 54.5001 76.4036 53.6019 75.2957 53.6019C74.1877 53.6019 73.2896 54.5001 73.2896 55.608C73.2896 56.716 74.1877 57.6142 75.2957 57.6142Z" fill="#D9D9FF"/>
<path d="M109.872 92.1907C110.98 92.1907 111.878 91.2925 111.878 90.1845C111.878 89.0766 110.98 88.1784 109.872 88.1784C108.764 88.1784 107.866 89.0766 107.866 90.1845C107.866 91.2925 108.764 92.1907 109.872 92.1907Z" fill="#D9D9FF"/>
<path d="M99.4215 57.2136V37.1554C99.4215 36.4112 100.025 35.8077 100.769 35.8077H127.277C128.021 35.8077 128.625 36.4112 128.625 37.1554V57.2136C128.625 57.9578 128.021 58.5613 127.277 58.5613H100.769C100.025 58.5613 99.4215 57.9578 99.4215 57.2136Z" fill="#FFC599"/>
<path d="M109.744 42.9205H118.303C120.659 42.9205 122.568 44.8288 122.568 47.184C122.568 49.5391 120.659 51.449 118.303 51.449H109.744C107.387 51.449 105.479 49.5391 105.479 47.184C105.479 46.0064 105.955 44.9401 106.728 44.1695C107.5 43.3971 108.564 42.9205 109.744 42.9205Z" fill="#FF7300"/>
<path d="M109.743 51.4492C112.098 51.4492 114.007 49.5398 114.007 47.1844C114.007 44.829 112.098 42.9196 109.743 42.9196C107.387 42.9196 105.478 44.829 105.478 47.1844C105.478 49.5398 107.387 51.4492 109.743 51.4492Z" fill="white"/>
<path d="M9.37512 108.637V88.579C9.37512 87.8348 9.9786 87.2313 10.7228 87.2313H37.2306C37.9748 87.2313 38.5783 87.8348 38.5783 88.579V108.637C38.5783 109.381 37.9748 109.985 37.2306 109.985H10.7228C9.9786 109.985 9.37512 109.382 9.37512 108.637Z" fill="#6C6CFF"/>
<path d="M127.277 34.4601H100.769C99.2829 34.4601 98.0738 35.6692 98.0738 37.1554V47.9647H24.5274C22.2981 47.9647 20.4844 49.7784 20.4844 52.0076V85.8837H10.7228C9.23658 85.8837 8.02747 87.0928 8.02747 88.579V108.638C8.02747 110.124 9.23658 111.333 10.7228 111.333H37.2309C38.7171 111.333 39.9262 110.124 39.9262 108.638V97.8282H113.473C115.702 97.8282 117.516 96.0146 117.516 93.7853V67.7256C117.516 66.9812 116.912 66.378 116.168 66.378C115.424 66.378 114.82 66.9812 114.82 67.7256V93.7853C114.82 94.5284 114.216 95.1329 113.473 95.1329H70.3477V50.6603H98.0738V57.2136C98.0738 58.6998 99.2829 59.909 100.769 59.909H127.277C128.763 59.909 129.973 58.6998 129.973 57.2136V37.1554C129.973 35.6692 128.763 34.4601 127.277 34.4601ZM37.2309 85.8837H30.9961C30.2519 85.8837 29.6485 86.4869 29.6485 87.2313C29.6485 87.9758 30.2519 88.579 30.9961 88.579H37.2306V108.638H10.7228V88.579H21.832C22.5762 88.579 23.1797 87.9758 23.1797 87.2313V52.0076C23.1797 51.2645 23.7843 50.66 24.5274 50.66H67.6524V95.1326H39.9262V88.579C39.9262 87.0928 38.7171 85.8837 37.2309 85.8837ZM127.277 57.2136L100.769 57.2155V37.1554H127.277V57.2136Z" fill="#0000CC"/>
<path d="M75.5855 38.2117C76.041 38.2117 76.4854 37.9807 76.7391 37.5629C77.125 36.9266 76.9221 36.0975 76.2857 35.7115C74.0909 34.3806 71.5716 33.6766 69 33.6766C66.4281 33.6766 63.9088 34.3803 61.7143 35.7115C61.0779 36.0978 60.875 36.9266 61.2609 37.5629C61.6469 38.199 62.4757 38.402 63.1121 38.0163C64.8853 36.9406 66.9211 36.3719 69 36.3719C71.0786 36.3719 73.1147 36.9403 74.8876 38.0163C75.1062 38.1484 75.3472 38.2117 75.5855 38.2117Z" fill="#0000CC"/>
<path d="M69 39.1097C67.7647 39.1097 66.554 39.448 65.4988 40.0879C64.8624 40.4741 64.6595 41.3029 65.0454 41.939C65.4314 42.5754 66.2599 42.7783 66.8966 42.3926C68.1636 41.6239 69.8364 41.6242 71.1032 42.3926C71.3217 42.525 71.5627 42.5883 71.8007 42.5883C72.2562 42.5883 72.7009 42.3573 72.9543 41.9393C73.3403 41.3032 73.1373 40.4741 72.5007 40.0881C71.446 39.4477 70.2355 39.1097 69 39.1097Z" fill="#0000CC"/>
<path d="M58.9133 33.607C59.1513 33.607 59.3925 33.5439 59.6109 33.4113C62.4388 31.696 65.6853 30.7891 69 30.7891C72.3144 30.7891 75.5612 31.6958 78.3894 33.4113C79.0263 33.7973 79.8548 33.5941 80.2405 32.9577C80.6262 32.3213 80.4235 31.4925 79.7869 31.1066C76.5374 29.1355 72.8071 28.0938 69 28.0938C65.1923 28.0938 61.4623 29.1355 58.2131 31.1066C57.5767 31.4928 57.3738 32.3216 57.7597 32.9577C58.0131 33.3757 58.4575 33.607 58.9133 33.607Z" fill="#0000CC"/>
<g opacity="0.1">
<g opacity="0.1">
<path opacity="0.1" d="M75.5855 45.489C75.3475 45.489 75.1062 45.4259 74.8879 45.2933C73.1147 44.2176 71.0789 43.6492 69 43.6492C66.9211 43.6492 64.8853 44.2176 63.1121 45.2933C62.4757 45.6795 61.6469 45.4766 61.2609 44.84C60.875 44.2036 61.0779 43.3748 61.7143 42.9888C63.9091 41.6576 66.4284 40.9539 69 40.9539C71.5716 40.9539 74.0912 41.6576 76.2857 42.9888C76.9221 43.3748 77.125 44.2036 76.7391 44.84C76.4854 45.2577 76.041 45.489 75.5855 45.489Z" fill="#0000CC"/>
</g>
<g opacity="0.1">
<path opacity="0.1" d="M71.801 49.8651C71.563 49.8651 71.3217 49.802 71.1034 49.6694C69.8372 48.9012 68.1634 48.9012 66.8971 49.6694C66.2608 50.0556 65.432 49.8527 65.046 49.216C64.66 48.5794 64.863 47.7509 65.4993 47.3649C66.5543 46.725 67.7647 46.387 69.0005 46.387C70.2363 46.387 71.4468 46.7253 72.5018 47.3649C73.1381 47.7509 73.3411 48.5797 72.9551 49.216C72.7009 49.6341 72.2565 49.8651 71.801 49.8651Z" fill="#0000CC"/>
</g>
<g opacity="0.1">
<path opacity="0.1" d="M79.0867 40.884C78.8487 40.884 78.6074 40.821 78.3891 40.6884C75.5615 38.9731 72.3147 38.0661 69 38.0661C65.6853 38.0661 62.4385 38.9728 59.6109 40.6884C58.9742 41.0746 58.1454 40.8716 57.7597 40.235C57.3738 39.5986 57.5767 38.7698 58.2131 38.3839C61.4623 36.4128 65.1926 35.3708 69 35.3708C72.8074 35.3708 76.5377 36.4128 79.7869 38.3839C80.4233 38.7698 80.6262 39.5986 80.2402 40.235C79.9869 40.6531 79.5422 40.884 79.0867 40.884Z" fill="#0000CC"/>
</g>
</g>
<path d="M26.2802 92.6715L24.397 97.191H27.3553C27.6556 97.191 27.8143 97.5465 27.6138 97.7702L21.959 105.208C21.6068 105.672 20.8855 105.237 21.1313 104.709L23.7582 99.0661H20.5427C20.295 99.0661 20.1268 98.8141 20.2222 98.5853L22.7976 92.4044C22.8515 92.275 22.9779 92.1907 23.118 92.1907H25.9597C26.2074 92.1907 26.3756 92.4427 26.2802 92.6715Z" fill="#FFC599"/>
<path d="M23.977 28.1725C23.632 28.1725 23.2873 28.0409 23.0239 27.7776L19.9801 24.7343C19.7273 24.4815 19.5855 24.1389 19.5855 23.7815C19.5855 23.4241 19.7276 23.0813 19.9801 22.8288L23.0236 19.7849C23.2765 19.5321 23.619 19.3901 23.9767 19.3901C24.3344 19.3901 24.677 19.5318 24.9298 19.7849L27.9733 22.8288C28.2261 23.0816 28.3679 23.4241 28.3679 23.7815C28.3679 24.1389 28.2259 24.4818 27.9733 24.7343L24.9298 27.7779C24.6667 28.0409 24.3217 28.1725 23.977 28.1725ZM22.839 23.7813L23.9767 24.919L25.1144 23.7813L23.9767 22.6433L22.839 23.7813Z" fill="#FF9D33"/>
<path d="M38.5786 37.3072C38.2336 37.3072 37.8888 37.1756 37.6255 36.9123L34.582 33.8687C34.3292 33.6159 34.1874 33.2733 34.1874 32.9159C34.1874 32.5586 34.3294 32.2157 34.582 31.9632L37.6255 28.9193C37.8783 28.6665 38.2209 28.5245 38.5786 28.5245C38.9363 28.5245 39.2788 28.6662 39.5316 28.9193L42.5752 31.9632C42.828 32.216 42.9698 32.5586 42.9698 32.9159C42.9698 33.2733 42.8277 33.6162 42.5752 33.8687L39.5316 36.9123C39.2683 37.1756 38.9236 37.3072 38.5786 37.3072ZM37.4409 32.9159L38.5786 34.0536L39.7163 32.9159L38.5786 31.778L37.4409 32.9159Z" fill="#6C6CFF"/>
<path d="M53.502 118.398C53.1446 118.398 52.8017 118.257 52.5489 118.004L49.5053 114.96C49.2525 114.707 49.1107 114.364 49.1107 114.007C49.1107 113.65 49.2528 113.307 49.5053 113.054L52.5489 110.011C53.0753 109.484 53.9284 109.484 54.4547 110.011L57.4983 113.054C57.7511 113.307 57.8929 113.65 57.8929 114.007C57.8929 114.364 57.7508 114.707 57.4983 114.96L54.4547 118.004C54.2022 118.257 53.8594 118.398 53.502 118.398ZM52.3643 114.007L53.502 115.145L54.6396 114.007L53.502 112.869L52.3643 114.007Z" fill="#FF6C6C"/>
<path d="M105.478 117.14C103.513 117.14 101.914 115.541 101.914 113.576C101.914 111.61 103.513 110.011 105.478 110.011C107.444 110.011 109.043 111.61 109.043 113.576C109.043 115.541 107.444 117.14 105.478 117.14ZM105.478 112.707C104.999 112.707 104.609 113.096 104.609 113.576C104.609 114.055 104.999 114.445 105.478 114.445C105.958 114.445 106.348 114.055 106.348 113.576C106.348 113.096 105.958 112.707 105.478 112.707Z" fill="#6C6CFF"/>
<path d="M92.584 30.5508C90.6186 30.5508 89.0195 28.9517 89.0195 26.9862C89.0195 25.0208 90.6186 23.4217 92.584 23.4217C94.5494 23.4217 96.1486 25.0208 96.1486 26.9862C96.1486 28.9517 94.5494 30.5508 92.584 30.5508ZM92.584 26.117C92.1048 26.117 91.7148 26.5067 91.7148 26.9862C91.7148 27.4657 92.1045 27.8555 92.584 27.8555C93.0635 27.8555 93.4533 27.4657 93.4533 26.9862C93.4533 26.5067 93.0633 26.117 92.584 26.117Z" fill="#6C6CFF"/>
<defs>
<linearGradient id="paint0_linear" x1="102.145" y1="4.53078" x2="35.3015" y2="172.718" gradientUnits="userSpaceOnUse">
<stop offset="0.0023" stop-color="#FFC599"/>
<stop offset="0.992" stop-color="#FFE8DC" stop-opacity="0"/>
</linearGradient>
</defs>
</svg>
