<svg width="138" height="138" viewBox="0 0 138 138" fill="none" xmlns="http://www.w3.org/2000/svg">
<path d="M125.401 44.9066C121.396 40.2405 118.759 34.5685 117.526 28.5439C116.481 23.4352 114.266 19.0022 110.798 15.5344C94.9572 -0.30672 58.9772 9.98965 30.4347 38.5322C1.89211 67.0748 -8.40425 103.054 7.43691 118.896C14.9668 126.426 27.0472 128.048 40.7157 124.613C48.6542 122.618 57.0309 123.458 64.5126 126.778C70.7663 129.552 77.6654 131.137 84.9226 131.243C113.406 131.659 137.144 108.992 137.977 80.5182C138.375 66.9052 133.569 54.4213 125.401 44.9066Z" fill="url(#paint0_linear)"/>
<g opacity="0.1">
<g opacity="0.1">
<path opacity="0.1" d="M75.5855 30.512C75.3475 30.512 75.1063 30.449 74.888 30.3163C73.1147 29.2406 71.0787 28.6719 69.0001 28.6719C66.9214 28.6719 64.8854 29.2404 63.1121 30.3163C62.4755 30.7026 61.6467 30.4996 61.261 29.863C60.875 29.2266 61.078 28.3978 61.7144 28.0119C63.9091 26.6804 66.4285 25.9766 69.0001 25.9766C71.5717 25.9766 74.091 26.6804 76.2858 28.0119C76.9221 28.3978 77.1251 29.2266 76.7391 29.863C76.4855 30.2808 76.041 30.512 75.5855 30.512Z" fill="#0000CC"/>
</g>
<g opacity="0.1">
<path opacity="0.1" d="M71.801 34.8884C71.563 34.8884 71.3218 34.8253 71.1035 34.6927C69.837 33.9243 68.1637 33.9243 66.8972 34.6927C66.2608 35.0792 65.432 34.876 65.0461 34.2394C64.6601 33.6027 64.8631 32.7742 65.4994 32.3882C66.5544 31.7484 67.7651 31.4101 69.0006 31.4101C70.2362 31.4101 71.4469 31.7484 72.5018 32.3882C73.1382 32.7742 73.3411 33.603 72.9552 34.2394C72.701 34.6571 72.2565 34.8884 71.801 34.8884Z" fill="#0000CC"/>
</g>
<g opacity="0.1">
<path opacity="0.1" d="M79.0867 25.9074C78.8487 25.9074 78.6075 25.8443 78.3892 25.7117C75.5615 23.9964 72.3147 23.0894 69 23.0894C65.6853 23.0894 62.4386 23.9961 59.6109 25.7117C58.9746 26.0979 58.1458 25.895 57.7598 25.2583C57.3738 24.622 57.5768 23.7932 58.2131 23.4072C61.4623 21.4361 65.1926 20.3941 69 20.3941C72.8074 20.3941 76.5377 21.4361 79.7869 23.4072C80.4233 23.7932 80.6263 24.622 80.2403 25.2583C79.9869 25.6761 79.5422 25.9074 79.0867 25.9074Z" fill="#0000CC"/>
</g>
</g>
<g opacity="0.1">
<path opacity="0.1" d="M83.6221 42.4091H54.378C51.4007 42.4091 48.9873 44.8225 48.9873 47.7997V102.944C48.9873 105.921 51.4007 108.335 54.378 108.335H83.6221C86.5993 108.335 89.0127 105.921 89.0127 102.944V47.7997C89.0127 44.8228 86.5993 42.4091 83.6221 42.4091Z" fill="#0000CC"/>
<path opacity="0.1" d="M52.7384 65.0821H32.0742V36.356L41.817 32.62V19.1006L30.7266 14.8477L19.6362 19.1006V32.62L29.3789 36.356V66.4297C29.3789 67.1739 29.9824 67.7774 30.7266 67.7774H52.7384V65.0821Z" fill="#0000CC"/>
<path opacity="0.1" d="M108.621 110.267V80.1931C108.621 79.4489 108.018 78.8455 107.273 78.8455H85.0822V81.5408H105.926V110.267L96.1831 114.003V127.522L107.273 131.775L118.364 127.522V114.003L108.621 110.267Z" fill="#0000CC"/>
</g>
<path d="M83.6221 101.058H54.378C51.4007 101.058 48.9873 98.6445 48.9873 95.6672V40.5225C48.9873 37.5452 51.4007 35.1318 54.378 35.1318H83.6221C86.5993 35.1318 89.0127 37.5452 89.0127 40.5225V95.6669C89.0127 98.6442 86.5993 101.058 83.6221 101.058Z" fill="#B3B3FF"/>
<path d="M61.6329 101.058H55.3439V86.1689C55.3439 85.4248 55.9474 84.8213 56.6916 84.8213H60.2853C61.0294 84.8213 61.6329 85.4248 61.6329 86.1689V101.058Z" fill="#8383FF"/>
<path d="M82.6564 101.058H76.3674V86.1689C76.3674 85.4248 76.9709 84.8213 77.7151 84.8213H81.3087C82.0529 84.8213 82.6564 85.4248 82.6564 86.1689V101.058Z" fill="#8383FF"/>
<path d="M74.75 35.1318V36.7393C74.75 39.9149 72.1757 42.4892 69.0001 42.4892C65.8244 42.4892 63.2502 39.9149 63.2502 36.7393V35.1318H74.75Z" fill="#FF6C6C"/>
<path d="M77.0515 61.9927L70.1561 50.4872C69.6326 49.614 68.3675 49.614 67.8443 50.4872L60.9489 61.9927C60.4106 62.8911 61.0575 64.0331 62.1049 64.0331H75.8958C76.9426 64.0331 77.5898 62.8908 77.0515 61.9927Z" fill="white"/>
<path d="M19.6362 25.3427V11.8232L30.7266 7.57031L41.817 11.8232V25.3427H19.6362Z" fill="#FF4D4D"/>
<path d="M30.7266 25.3427H19.6362V11.8232L30.7266 7.57031V25.3427Z" fill="#FFB3B3"/>
<path d="M30.7266 29.5953L41.817 25.3427L30.7266 21.0897L19.6362 25.3427L30.7266 29.5953Z" fill="#FF6C6C"/>
<path d="M60.9486 70.0758L67.844 81.5812C68.3674 82.4545 69.6326 82.4545 70.1558 81.5812L77.0512 70.0758C77.5894 69.1774 76.9426 68.0354 75.8952 68.0354H62.1043C61.0575 68.0351 60.4103 69.1774 60.9486 70.0758Z" fill="white"/>
<path d="M118.364 106.726V120.245L107.273 124.498L96.183 120.245V106.726H118.364Z" fill="#FF9D33"/>
<path d="M107.273 106.726H118.364V120.245L107.273 124.498V106.726Z" fill="#FFE8DC"/>
<path d="M107.273 102.473L96.183 106.726L107.273 110.979L118.364 106.726L107.273 102.473Z" fill="#FFC599"/>
<path d="M67.1133 99.7102H54.378C52.1487 99.7102 50.335 97.8965 50.335 95.6672V68.3165C50.335 67.5724 49.7315 66.9689 48.9873 66.9689C48.2432 66.9689 47.6397 67.5724 47.6397 68.3165V95.6669C47.6397 99.3824 50.6625 102.405 54.378 102.405H67.1133C67.8575 102.405 68.461 101.802 68.461 101.058C68.461 100.313 67.8575 99.7102 67.1133 99.7102Z" fill="#0000CC"/>
<path d="M75.5855 23.2347C76.041 23.2347 76.4854 23.0037 76.7391 22.5856C77.125 21.9493 76.9221 21.1205 76.2857 20.7345C74.0909 19.403 71.5716 18.6993 69 18.6993C66.4284 18.6993 63.9091 19.403 61.7143 20.7345C61.078 21.1205 60.875 21.9493 61.261 22.5856C61.6469 23.222 62.4755 23.425 63.1121 23.039C64.8854 21.9633 66.9214 21.3946 69 21.3946C71.0786 21.3946 73.1147 21.963 74.8879 23.039C75.1063 23.1713 75.3475 23.2347 75.5855 23.2347Z" fill="#0000CC"/>
<path d="M69 24.1328C67.7645 24.1328 66.5538 24.471 65.4988 25.1109C64.8624 25.4968 64.6595 26.3257 65.0455 26.962C65.4314 27.5987 66.2602 27.8016 66.8966 27.4154C68.1631 26.6469 69.8364 26.6469 71.1029 27.4154C71.3215 27.548 71.5625 27.6111 71.8005 27.6111C72.256 27.6111 72.7004 27.3801 72.954 26.962C73.34 26.3257 73.1371 25.4968 72.5007 25.1109C71.4463 24.471 70.2355 24.1328 69 24.1328Z" fill="#0000CC"/>
<path d="M59.6109 18.4343C62.4385 16.719 65.6853 15.8121 69 15.8121C72.3147 15.8121 75.5615 16.7188 78.3891 18.4343C78.6077 18.567 78.8487 18.63 79.0867 18.63C79.5422 18.63 79.9867 18.399 80.2403 17.981C80.6263 17.3446 80.4233 16.5158 79.7869 16.1299C76.5377 14.1588 72.8077 13.1168 69 13.1168C65.1924 13.1168 61.4623 14.1588 58.2131 16.1299C57.5767 16.5158 57.3738 17.3446 57.7598 17.981C58.1457 18.6174 58.9745 18.8208 59.6109 18.4343Z" fill="#0000CC"/>
<path d="M119.687 106.482C119.604 106.028 119.278 105.633 118.846 105.467L108.621 101.546V72.9158C108.621 72.1716 108.018 71.5681 107.273 71.5681H90.3604V40.5224C90.3604 36.8069 87.3376 33.7842 83.6221 33.7842H54.3779C50.6625 33.7842 47.6397 36.8069 47.6397 40.5224V57.8048H32.0742V30.522L42.2997 26.6009C42.8102 26.4055 43.1649 25.8893 43.1649 25.3427V11.8233C43.1649 11.2651 42.821 10.7648 42.2997 10.5651L31.209 6.31218C30.9055 6.19574 30.5476 6.19574 30.2441 6.31218L19.1537 10.5648C18.6324 10.7646 18.2885 11.2651 18.2885 11.823V25.3424C18.2885 25.8885 18.6438 26.4055 19.1537 26.6006L29.3789 30.522V59.1524C29.3789 59.8966 29.9824 60.5001 30.7266 60.5001H69C69.7442 60.5001 70.3477 59.8966 70.3477 59.1524C70.3477 58.4083 69.7442 57.8048 69 57.8048H50.335V40.5224C50.335 38.2931 52.1487 36.4795 54.3779 36.4795H83.6221C85.8514 36.4795 87.6651 38.2931 87.6651 40.5224V71.5681H69C68.2558 71.5681 67.6524 72.1716 67.6524 72.9158C67.6524 73.66 68.2558 74.2634 69 74.2634H87.6651V95.6669C87.6651 97.8962 85.8514 99.7099 83.6221 99.7099H76.2774C75.5332 99.7099 74.9297 100.313 74.9297 101.058C74.9297 101.802 75.5332 102.405 76.2774 102.405H83.6221C87.3376 102.405 90.3604 99.3824 90.3604 95.6669V74.2634H105.926V101.546L95.7003 105.467C95.1898 105.663 94.8351 106.179 94.8351 106.726V120.245C94.8351 120.803 95.1791 121.303 95.7003 121.503L106.791 125.756C107.098 125.874 107.448 125.874 107.756 125.756L118.846 121.503C119.367 121.303 119.711 120.803 119.711 120.245V106.726C119.712 106.643 119.702 106.562 119.687 106.482ZM40.4693 23.3824L32.0742 20.1631V9.53039L40.4693 12.7497V23.3824ZM29.3789 9.53039V20.1631L20.9838 23.3824V12.7497L29.3789 9.53039ZM23.3999 25.3427L30.7266 22.5331L38.0532 25.3427L32.0742 27.6353V26.4828C32.0742 25.7386 31.4707 25.1352 30.7266 25.1352C29.9824 25.1352 29.3789 25.7386 29.3789 26.4828V27.6353L23.3999 25.3427ZM105.926 104.433V105.585C105.926 106.33 106.529 106.933 107.273 106.933C108.018 106.933 108.621 106.33 108.621 105.585V104.433L114.6 106.726L107.273 109.535L99.9468 106.726L105.926 104.433ZM97.5307 108.686L105.926 111.905V122.538L97.5307 119.319V108.686ZM108.621 122.538V111.905L117.016 108.686V119.319L108.621 122.538Z" fill="#0000CC"/>
<path d="M28.9881 94.7761C28.6431 94.7761 28.2984 94.6446 28.0351 94.3815L25.0702 91.4167C24.5438 90.8903 24.5438 90.0369 25.0702 89.5108L28.0351 86.546C28.5615 86.0198 29.4145 86.0198 29.9409 86.546L32.9058 89.5108C33.4322 90.0372 33.4322 90.8905 32.9058 91.4167L29.9409 94.3815C29.6779 94.6446 29.3331 94.7761 28.9881 94.7761ZM27.9291 90.4636L28.9881 91.5226L30.0471 90.4636L28.9881 89.4046L27.9291 90.4636Z" fill="#6C6CFF"/>
<path d="M17.3735 40.9265C17.0285 40.9265 16.6837 40.795 16.4204 40.5319L13.4556 37.5671C12.9292 37.0407 12.9292 36.1873 13.4556 35.6612L16.4204 32.6964C16.9468 32.1702 17.7999 32.1702 18.3263 32.6964L21.2911 35.6612C21.8175 36.1876 21.8175 37.0409 21.2911 37.5671L18.3263 40.5319C18.0632 40.795 17.7185 40.9265 17.3735 40.9265ZM16.3145 36.614L17.3735 37.673L18.4325 36.614L17.3735 35.555L16.3145 36.614Z" fill="#FF6C6C"/>
<path d="M120.627 97.4736C120.282 97.4736 119.937 97.3421 119.674 97.079L116.709 94.1142C116.182 93.5878 116.182 92.7344 116.709 92.2083L119.674 89.2435C120.2 88.7173 121.053 88.7173 121.579 89.2435L124.544 92.2083C125.071 92.7347 125.071 93.588 124.544 94.1142L121.579 97.079C121.316 97.3418 120.972 97.4736 120.627 97.4736ZM119.568 93.1611L120.627 94.2201L121.686 93.1611L120.627 92.1021L119.568 93.1611Z" fill="#FF9D33"/>
<path d="M34.1124 76.4229C32.1785 76.4229 30.6053 74.8497 30.6053 72.9158C30.6053 70.9819 32.1785 69.4086 34.1124 69.4086C36.0463 69.4086 37.6196 70.9819 37.6196 72.9158C37.6196 74.8497 36.0463 76.4229 34.1124 76.4229ZM34.1124 72.1042C33.6647 72.1042 33.3006 72.4684 33.3006 72.916C33.3006 73.3637 33.6647 73.7279 34.1124 73.7279C34.5601 73.7279 34.9243 73.3637 34.9243 72.916C34.9243 72.4684 34.5601 72.1042 34.1124 72.1042Z" fill="#FF9D33"/>
<path d="M102.45 58.2804C100.516 58.2804 98.9428 56.7072 98.9428 54.7733C98.9428 52.8394 100.516 51.2662 102.45 51.2662C104.384 51.2662 105.957 52.8394 105.957 54.7733C105.957 56.7072 104.384 58.2804 102.45 58.2804ZM102.45 53.9615C102.002 53.9615 101.638 54.3256 101.638 54.7733C101.638 55.221 102.002 55.5851 102.45 55.5851C102.898 55.5851 103.262 55.221 103.262 54.7733C103.262 54.3256 102.898 53.9615 102.45 53.9615Z" fill="#6C6CFF"/>
<defs>
<linearGradient id="paint0_linear" x1="77.0283" y1="161.497" x2="58.0271" y2="-11.5338" gradientUnits="userSpaceOnUse">
<stop offset="0.0023" stop-color="#FF9494"/>
<stop offset="0.992" stop-color="#FFE8DC" stop-opacity="0"/>
</linearGradient>
</defs>
</svg>
