<svg width="138" height="138" fill="none" xmlns="http://www.w3.org/2000/svg"><path d="M125.401 44.907c-4.005-4.666-6.642-10.338-7.875-16.363-1.045-5.109-3.26-9.542-6.728-13.01-15.84-15.84-51.82-5.544-80.363 22.998-28.543 28.543-38.84 64.522-22.998 80.364 7.53 7.53 19.61 9.152 33.279 5.717 7.938-1.995 16.315-1.155 23.797 2.165a52.1 52.1 0 0020.41 4.465c28.483.416 52.221-22.251 53.054-50.725.398-13.613-4.408-26.097-12.576-35.611z" fill="url(#paint0_linear)"/><path opacity=".1" d="M75.585 30.512c-.237 0-.479-.063-.697-.196A11.35 11.35 0 0069 28.672c-2.079 0-4.115.568-5.888 1.644a1.347 1.347 0 11-1.398-2.304A14.044 14.044 0 0169 25.977c2.572 0 5.091.703 7.286 2.035a1.348 1.348 0 01-.7 2.5zm-3.784 4.376a1.34 1.34 0 01-.698-.195 4.126 4.126 0 00-4.206 0 1.347 1.347 0 11-1.398-2.305 6.751 6.751 0 017.003 0 1.348 1.348 0 01-.701 2.5zm7.286-8.981a1.34 1.34 0 01-.698-.195A18.1 18.1 0 0069 23.089a18.1 18.1 0 00-9.39 2.623 1.347 1.347 0 11-1.397-2.305A20.794 20.794 0 0169 20.394c3.807 0 7.538 1.042 10.787 3.013a1.348 1.348 0 01-.7 2.5z" fill="#00C"/><g opacity=".1" fill="#00C"><path opacity=".1" d="M83.622 42.41H54.378a5.39 5.39 0 00-5.39 5.39v55.144a5.391 5.391 0 005.39 5.391h29.244a5.391 5.391 0 005.39-5.391V47.8a5.39 5.39 0 00-5.39-5.39z"/><path opacity=".1" d="M52.738 65.082H32.074V36.356l9.743-3.736V19.1l-11.09-4.252-11.09 4.253V32.62l9.742 3.736V66.43c0 .744.603 1.347 1.348 1.347h22.011v-2.695zm55.883 45.185V80.193c0-.744-.603-1.347-1.348-1.347h-22.19v2.695h20.843v28.726l-9.743 3.736v13.519l11.09 4.253 11.091-4.253v-13.519l-9.743-3.736z"/></g><path d="M83.622 101.058H54.378a5.39 5.39 0 01-5.39-5.39V40.521a5.39 5.39 0 015.39-5.39h29.244a5.39 5.39 0 015.39 5.39v55.145a5.39 5.39 0 01-5.39 5.391z" fill="#B3B3FF"/><path d="M61.633 101.058h-6.29v-14.89c0-.743.604-1.347 1.349-1.347h3.593c.744 0 1.348.604 1.348 1.348v14.889zm21.023 0h-6.289v-14.89c0-.743.604-1.347 1.348-1.347h3.594c.744 0 1.347.604 1.347 1.348v14.889z" fill="#8383FF"/><path d="M74.75 35.132v1.607a5.75 5.75 0 11-11.5 0v-1.607h11.5z" fill="#FF6C6C"/><path d="M77.052 61.993l-6.896-11.506a1.348 1.348 0 00-2.312 0L60.95 61.993a1.348 1.348 0 001.156 2.04h13.79a1.348 1.348 0 001.157-2.04z" fill="#fff"/><path d="M19.636 25.343v-13.52l11.09-4.253 11.091 4.253v13.52h-22.18z" fill="#FF4D4D"/><path d="M30.727 25.343h-11.09v-13.52l11.09-4.253v17.773z" fill="#FFB3B3"/><path d="M30.727 29.595l11.09-4.252-11.09-4.253-11.09 4.253 11.09 4.252z" fill="#FF6C6C"/><path d="M60.949 70.076l6.895 11.505a1.347 1.347 0 002.312 0l6.895-11.505a1.348 1.348 0 00-1.156-2.04h-13.79a1.348 1.348 0 00-1.156 2.04z" fill="#fff"/><path d="M118.364 106.726v13.519l-11.091 4.253-11.09-4.253v-13.519h22.181z" fill="#FF9D33"/><path d="M107.273 106.726h11.091v13.519l-11.091 4.253v-17.772z" fill="#FFE8DC"/><path d="M107.273 102.473l-11.09 4.253 11.09 4.253 11.091-4.253-11.091-4.253z" fill="#FFC599"/><path d="M67.113 99.71H54.378a4.048 4.048 0 01-4.043-4.043v-27.35a1.348 1.348 0 00-2.695 0v27.35a6.746 6.746 0 006.738 6.738h12.735a1.347 1.347 0 100-2.695zm8.472-76.475a1.347 1.347 0 00.7-2.5A14.044 14.044 0 0069 18.698c-2.572 0-5.09.704-7.286 2.035a1.348 1.348 0 001.398 2.305A11.35 11.35 0 0169 21.395c2.079 0 4.115.568 5.888 1.644.218.132.46.196.697.196zM69 24.133a6.75 6.75 0 00-3.501.978 1.348 1.348 0 101.398 2.304 4.125 4.125 0 014.206 0A1.347 1.347 0 1072.5 25.11a6.747 6.747 0 00-3.5-.976z" fill="#00C"/><path d="M59.61 18.434A18.1 18.1 0 0169 15.812c3.315 0 6.561.907 9.39 2.622a1.347 1.347 0 101.398-2.304A20.793 20.793 0 0069 13.117a20.794 20.794 0 00-10.787 3.013 1.348 1.348 0 101.398 2.304zm60.077 88.048a1.365 1.365 0 00-.841-1.015l-10.225-3.921v-28.63c0-.744-.603-1.348-1.348-1.348H90.36V40.522a6.746 6.746 0 00-6.738-6.738H54.378a6.746 6.746 0 00-6.738 6.738v17.283H32.074V30.522L42.3 26.601a1.37 1.37 0 00.865-1.258v-13.52c0-.558-.344-1.058-.865-1.258L31.209 6.312a1.376 1.376 0 00-.965 0l-11.09 4.253c-.522.2-.866.7-.866 1.258v13.52c0 .546.356 1.063.866 1.258l10.225 3.921v28.63c0 .745.603 1.348 1.348 1.348H69a1.348 1.348 0 000-2.695H50.335V40.522a4.047 4.047 0 014.043-4.042h29.244a4.048 4.048 0 014.043 4.042v31.046H69a1.348 1.348 0 000 2.695h18.665v21.404a4.048 4.048 0 01-4.043 4.043h-7.345a1.348 1.348 0 100 2.695h7.345a6.746 6.746 0 006.738-6.738V74.263h15.566v27.283L95.7 105.467c-.51.196-.865.712-.865 1.259v13.519c0 .558.344 1.058.865 1.258l11.091 4.253c.307.118.657.118.965 0l11.09-4.253c.521-.2.865-.7.865-1.258v-13.519a1.239 1.239 0 00-.024-.244zm-79.218-83.1l-8.395-3.219V9.53l8.395 3.22v10.632zM29.38 9.53v10.633l-8.395 3.22V12.75l8.395-3.22zM23.4 25.343l7.328-2.81 7.326 2.81-5.979 2.292v-1.152a1.348 1.348 0 00-2.695 0v1.152l-5.98-2.292zm82.527 79.09v1.152a1.347 1.347 0 102.695 0v-1.152l5.979 2.293-7.327 2.809-7.326-2.809 5.979-2.293zm-8.395 4.253l8.395 3.219v10.633l-8.395-3.219v-10.633zm11.09 13.852v-10.633l8.395-3.219v10.633l-8.395 3.219z" fill="#00C"/><path d="M28.988 94.776c-.345 0-.69-.131-.953-.394l-2.965-2.965a1.347 1.347 0 010-1.906l2.965-2.965a1.348 1.348 0 011.906 0l2.965 2.965c.526.526.526 1.38 0 1.906l-2.965 2.965a1.343 1.343 0 01-.953.394zm-1.059-4.312l1.06 1.059 1.058-1.06-1.059-1.058-1.059 1.059z" fill="#6C6CFF"/><path d="M17.373 40.926c-.345 0-.69-.131-.953-.394l-2.964-2.965a1.347 1.347 0 010-1.906l2.964-2.965a1.348 1.348 0 011.906 0l2.965 2.965c.526.527.526 1.38 0 1.906l-2.965 2.965a1.343 1.343 0 01-.953.395zm-1.059-4.312l1.06 1.059 1.059-1.059-1.06-1.059-1.059 1.059z" fill="#FF6C6C"/><path d="M120.627 97.474c-.345 0-.69-.132-.953-.395l-2.965-2.965a1.346 1.346 0 010-1.906l2.965-2.965a1.347 1.347 0 011.905 0l2.965 2.965c.527.527.527 1.38 0 1.906l-2.965 2.965a1.342 1.342 0 01-.952.395zm-1.059-4.313l1.059 1.06 1.059-1.06-1.059-1.059-1.059 1.06zM34.112 76.423a3.511 3.511 0 01-3.507-3.507 3.511 3.511 0 013.507-3.507 3.511 3.511 0 013.508 3.507 3.511 3.511 0 01-3.508 3.507zm0-4.319a.813.813 0 10.002 1.626.813.813 0 00-.002-1.626z" fill="#FF9D33"/><path d="M102.45 58.28a3.511 3.511 0 01-3.507-3.507 3.511 3.511 0 013.507-3.507 3.51 3.51 0 013.507 3.507 3.51 3.51 0 01-3.507 3.507zm0-4.319a.813.813 0 10.001 1.626.813.813 0 00-.001-1.626z" fill="#6C6CFF"/><defs><linearGradient id="paint0_linear" x1="77.028" y1="161.497" x2="58.027" y2="-11.534" gradientUnits="userSpaceOnUse"><stop offset=".002" stop-color="#FF9494"/><stop offset=".992" stop-color="#FFE8DC" stop-opacity="0"/></linearGradient></defs></svg>