<svg width="138" height="138" fill="none" xmlns="http://www.w3.org/2000/svg"><path d="M125.401 44.234c-4.005-4.666-6.642-10.338-7.875-16.363-1.045-5.109-3.26-9.542-6.728-13.01-15.84-15.84-51.82-5.544-80.363 22.998-28.543 28.543-38.84 64.523-22.998 80.364 7.53 7.53 19.61 9.152 33.279 5.717 7.938-1.995 16.315-1.155 23.797 2.164a52.082 52.082 0 0020.41 4.466c28.483.415 52.221-22.251 53.054-50.725.398-13.613-4.408-26.096-12.576-35.611z" fill="url(#paint0_linear)"/><path opacity=".1" d="M127.277 43.085h-26.508c-.744 0-1.348.603-1.348 1.347V56.59H24.527a2.695 2.695 0 00-2.695 2.696v35.223h-11.11c-.743 0-1.347.604-1.347 1.348v20.058c0 .744.604 1.348 1.348 1.348H37.23c.744 0 1.347-.604 1.347-1.348v-12.157h74.895a2.695 2.695 0 002.695-2.695V65.839h11.109c.744 0 1.348-.604 1.348-1.348V44.433c0-.745-.604-1.348-1.348-1.348z" fill="#00C"/><path d="M69 96.48H21.832V52.008a2.695 2.695 0 012.695-2.696H69V96.48z" fill="#fff"/><path d="M43.44 71.78h3.953c.744 0 1.347.603 1.347 1.347v10.509c0 .744-.603 1.347-1.347 1.347H43.44a1.348 1.348 0 01-1.348-1.347V73.127c0-.744.603-1.347 1.348-1.347zm-1.305-9.623v3.953c0 .744-.603 1.347-1.348 1.347H30.28a1.348 1.348 0 01-1.348-1.347v-3.953c0-.745.604-1.348 1.348-1.348h10.508c.745 0 1.348.603 1.348 1.348zm19.765 0v3.953c0 .744-.603 1.347-1.347 1.347H50.045a1.348 1.348 0 01-1.348-1.347v-3.953c0-.745.603-1.348 1.348-1.348h10.508c.744 0 1.348.603 1.348 1.348z" fill="#6C6CFF"/><path d="M28.128 57.614a2.006 2.006 0 100-4.012 2.006 2.006 0 000 4.012zM62.704 92.19a2.006 2.006 0 100-4.012 2.006 2.006 0 000 4.013z" fill="#D9D9FF"/><path d="M35.982 77.59H34.77a1.348 1.348 0 01-1.348-1.348V72.96c0-.744.603-1.348 1.348-1.348h1.212c.745 0 1.348.604 1.348 1.348v3.28c0 .745-.603 1.349-1.348 1.349zm20.081 0H54.85a1.348 1.348 0 01-1.348-1.348V72.96c0-.744.603-1.348 1.348-1.348h1.212c.745 0 1.348.604 1.348 1.348v3.28c0 .745-.603 1.349-1.347 1.349z" fill="#6C6CFF"/><path d="M116.168 49.312v44.473a2.695 2.695 0 01-2.695 2.695H69V49.312h47.168z" fill="#fff"/><path d="M116.168 49.312v14.6H100.77a1.348 1.348 0 01-1.348-1.347V49.312h16.746z" fill="#FFF3EE"/><path d="M92.584 55.735c-9.477 0-17.161 7.685-17.161 17.161 0 9.477 7.684 17.161 17.161 17.161s17.161-7.684 17.161-17.16c0-9.477-7.684-17.162-17.161-17.162zm0 29.358c-6.736 0-12.196-5.461-12.196-12.197 0-6.735 5.46-12.196 12.196-12.196s12.196 5.46 12.196 12.196-5.46 12.197-12.196 12.197z" fill="#FFAB66"/><path d="M107.206 63.913h-6.372a11.903 11.903 0 00-1.388-1.1 1.266 1.266 0 01-.024-.248v-5.41a17.204 17.204 0 017.784 6.758z" fill="#FF9D33"/><path d="M92.584 77.976a5.08 5.08 0 100-10.16 5.08 5.08 0 000 10.16z" fill="#FF6C6C"/><path d="M75.296 57.614a2.006 2.006 0 100-4.012 2.006 2.006 0 000 4.012zm34.576 34.576a2.006 2.006 0 100-4.011 2.006 2.006 0 000 4.012z" fill="#D9D9FF"/><path d="M99.421 57.214V37.155c0-.744.604-1.347 1.348-1.347h26.508c.744 0 1.348.603 1.348 1.347v20.059c0 .744-.604 1.347-1.348 1.347h-26.508a1.348 1.348 0 01-1.348-1.347z" fill="#FFC599"/><path d="M109.744 42.92h8.559a4.264 4.264 0 110 8.529h-8.559a4.264 4.264 0 110-8.529z" fill="#FF7300"/><path d="M109.743 51.45a4.264 4.264 0 100-8.53 4.264 4.264 0 000 8.53z" fill="#fff"/><path d="M9.375 108.637V88.579c0-.744.604-1.348 1.348-1.348H37.23c.744 0 1.347.604 1.347 1.348v20.058c0 .744-.603 1.348-1.347 1.348H10.723a1.348 1.348 0 01-1.348-1.348z" fill="#6C6CFF"/><path d="M127.277 34.46h-26.508a2.698 2.698 0 00-2.695 2.695v10.81H24.527a4.048 4.048 0 00-4.043 4.043v33.876h-9.761a2.698 2.698 0 00-2.696 2.695v20.059a2.698 2.698 0 002.696 2.695H37.23a2.698 2.698 0 002.695-2.695v-10.81h73.547a4.048 4.048 0 004.043-4.043v-26.06a1.348 1.348 0 00-2.696 0v26.06c0 .743-.604 1.348-1.347 1.348H70.348V50.66h27.726v6.554a2.698 2.698 0 002.695 2.695h26.508a2.7 2.7 0 002.696-2.695V37.155a2.7 2.7 0 00-2.696-2.695zM37.231 85.884h-6.235a1.348 1.348 0 100 2.695h6.235v20.059H10.723V88.579h11.109c.744 0 1.348-.603 1.348-1.348V52.008a1.35 1.35 0 011.347-1.348h43.125v44.473H39.926v-6.554a2.698 2.698 0 00-2.695-2.695zm90.046-28.67l-26.508.002v-20.06h26.508v20.058zM75.585 38.212a1.347 1.347 0 00.7-2.5A14.05 14.05 0 0069 33.677a14.04 14.04 0 00-7.286 2.035 1.348 1.348 0 001.398 2.304A11.35 11.35 0 0169 36.372c2.079 0 4.115.568 5.888 1.644.218.132.46.196.697.196z" fill="#00C"/><path d="M69 39.11a6.751 6.751 0 00-3.501.978 1.348 1.348 0 001.398 2.305 4.126 4.126 0 014.206 0 1.347 1.347 0 101.397-2.305 6.743 6.743 0 00-3.5-.978zm-10.087-5.503c.238 0 .48-.063.698-.196A18.1 18.1 0 0169 30.79c3.314 0 6.561.907 9.39 2.622a1.347 1.347 0 101.397-2.304A20.795 20.795 0 0069 28.094a20.793 20.793 0 00-10.787 3.013 1.348 1.348 0 00.7 2.5z" fill="#00C"/><path opacity=".1" d="M75.585 45.489a1.34 1.34 0 01-.697-.196A11.349 11.349 0 0069 43.65c-2.079 0-4.115.569-5.888 1.644a1.347 1.347 0 11-1.398-2.304A14.046 14.046 0 0169 40.954c2.572 0 5.091.704 7.286 2.035a1.348 1.348 0 01-.7 2.5zm-3.784 4.376a1.34 1.34 0 01-.698-.196 4.127 4.127 0 00-4.206 0 1.347 1.347 0 11-1.398-2.304 6.75 6.75 0 017.003 0 1.348 1.348 0 01-.701 2.5zm7.286-8.981a1.34 1.34 0 01-.698-.196A18.1 18.1 0 0069 38.066c-3.315 0-6.562.907-9.39 2.622a1.347 1.347 0 11-1.397-2.304A20.794 20.794 0 0169 35.37c3.807 0 7.538 1.042 10.787 3.013a1.348 1.348 0 01-.7 2.5z" fill="#00C"/><path d="M26.28 92.671l-1.883 4.52h2.958c.3 0 .46.355.259.58l-5.655 7.437c-.352.464-1.073.029-.828-.499l2.627-5.643h-3.215a.347.347 0 01-.32-.48l2.575-6.182a.347.347 0 01.32-.213h2.842c.247 0 .416.252.32.48z" fill="#FFC599"/><path d="M23.977 28.172c-.345 0-.69-.131-.953-.394l-3.044-3.044a1.347 1.347 0 010-1.905l3.044-3.044a1.348 1.348 0 011.906 0l3.043 3.044a1.347 1.347 0 010 1.905l-3.043 3.044a1.344 1.344 0 01-.953.395zm-1.138-4.39l1.138 1.137 1.137-1.138-1.137-1.138-1.138 1.138z" fill="#FF9D33"/><path d="M38.579 37.307a1.34 1.34 0 01-.953-.395l-3.044-3.043a1.347 1.347 0 010-1.906l3.044-3.044a1.347 1.347 0 011.906 0l3.043 3.044a1.347 1.347 0 010 1.906l-3.043 3.043a1.343 1.343 0 01-.953.395zm-1.138-4.391l1.138 1.138 1.137-1.138-1.137-1.138-1.138 1.138z" fill="#6C6CFF"/><path d="M53.502 118.398c-.357 0-.7-.141-.953-.394l-3.044-3.044a1.349 1.349 0 010-1.906l3.044-3.043a1.346 1.346 0 011.906 0l3.043 3.043a1.349 1.349 0 010 1.906l-3.043 3.044a1.345 1.345 0 01-.953.394zm-1.138-4.391l1.138 1.138 1.138-1.138-1.138-1.138-1.138 1.138z" fill="#FF6C6C"/><path d="M105.478 117.14a3.568 3.568 0 01-3.564-3.564 3.569 3.569 0 013.564-3.565 3.569 3.569 0 013.565 3.565 3.569 3.569 0 01-3.565 3.564zm0-4.433a.87.87 0 10.001 1.74.87.87 0 00-.001-1.74zM92.584 30.55a3.569 3.569 0 01-3.565-3.564 3.57 3.57 0 013.565-3.564 3.57 3.57 0 013.565 3.564 3.57 3.57 0 01-3.565 3.565zm0-4.433a.87.87 0 10.002 1.74.87.87 0 00-.002-1.74z" fill="#6C6CFF"/><defs><linearGradient id="paint0_linear" x1="102.145" y1="4.531" x2="35.301" y2="172.718" gradientUnits="userSpaceOnUse"><stop offset=".002" stop-color="#FFC599"/><stop offset=".992" stop-color="#FFE8DC" stop-opacity="0"/></linearGradient></defs></svg>